<svg width="88" height="88" viewBox="0 0 88 88" fill="none" xmlns="http://www.w3.org/2000/svg">
    <path d="M0 44C0 25.2354 0 15.8531 4.95952 9.38973C6.23633 7.72575 7.72575 6.23633 9.38973 4.95952C15.8531 0 25.2354 0 44 0V0C62.7646 0 72.1469 0 78.6103 4.95952C80.2742 6.23633 81.7637 7.72575 83.0405 9.38973C88 15.8531 88 25.2354 88 44V44C88 62.7646 88 72.1469 83.0405 78.6103C81.7637 80.2742 80.2742 81.7637 78.6103 83.0405C72.1469 88 62.7646 88 44 88V88C25.2354 88 15.8531 88 9.38973 83.0405C7.72575 81.7637 6.23633 80.2742 4.95952 78.6103C0 72.1469 0 62.7646 0 44V44Z" fill="#5295F1"/>
    <path d="M34.439 52.5158V35.844C34.439 35.5356 34.5331 35.2843 34.7214 35.0901C34.9208 34.8845 35.1644 34.7817 35.4524 34.7817H39.1738C39.4617 34.7817 39.6999 34.8845 39.8881 35.0901C40.0875 35.2843 40.1872 35.5356 40.1872 35.844V36.9235C42.0922 35.2672 44.119 34.439 46.2677 34.439C48.4274 34.439 50.1829 35.1187 51.5341 36.478C52.8853 37.8259 53.5609 39.8935 53.5609 42.6807V52.5158C53.5609 52.8128 53.4612 53.0641 53.2619 53.2697C53.0736 53.4639 52.8299 53.561 52.5309 53.561H48.8261C48.5382 53.561 48.2945 53.4639 48.0951 53.2697C47.9068 53.0641 47.8127 52.8128 47.8127 52.5158V42.6807C47.8127 39.9506 46.755 38.5855 44.6396 38.5855C43.2551 38.5855 41.771 39.4023 40.1872 41.0358V52.5158C40.1872 52.8128 40.0875 53.0641 39.8881 53.2697C39.6999 53.4639 39.4617 53.561 39.1738 53.561H35.4524C35.1644 53.561 34.9208 53.4639 34.7214 53.2697C34.5331 53.0641 34.439 52.8128 34.439 52.5158Z" fill="white"/>
    <path d="M71.3171 44C71.3171 45.8858 69.7883 47.4146 67.9024 47.4146C66.0166 47.4146 64.4878 45.8858 64.4878 44C64.4878 42.1141 66.0166 40.5854 67.9024 40.5854C69.7883 40.5854 71.3171 42.1141 71.3171 44Z" fill="white"/>
    <path d="M67.9109 53.3352C69.4919 53.9724 70.2704 55.7779 69.462 57.2756C66.8765 62.0655 62.9355 66.0215 58.0995 68.6301C52.3542 71.7291 45.7054 72.7323 39.2984 71.4667C32.8915 70.2011 27.1275 66.7461 22.9995 61.6968C18.8715 56.6475 16.6379 50.3201 16.6835 43.8045C16.7291 37.289 19.0511 30.9933 23.2493 26.002C27.4476 21.0107 33.2593 17.6363 39.6834 16.46C46.1074 15.2838 52.7416 16.3795 58.4429 19.5582C63.242 22.2339 67.1272 26.2445 69.6454 31.0699C70.4328 32.5787 69.6291 34.3732 68.0393 34.9883C66.4496 35.6035 64.6794 34.8021 63.8454 33.3184C61.8793 29.8203 58.9743 26.9113 55.4305 24.9354C50.9834 22.456 45.8088 21.6014 40.7981 22.5188C35.7873 23.4363 31.2542 26.0683 27.9795 29.9615C24.7049 33.8548 22.8937 38.7654 22.8582 43.8475C22.8226 48.9297 24.5648 53.865 27.7847 57.8035C31.0045 61.742 35.5004 64.4369 40.4978 65.424C45.4952 66.4112 50.6813 65.6287 55.1626 63.2115C58.7338 61.2852 61.6792 58.4169 63.6941 54.9466C64.5487 53.4746 66.33 52.698 67.9109 53.3352Z" fill="white"/>
</svg>
